<svg xmlns="http://www.w3.org/2000/svg" width="926.000000pt" height="245.000000pt" version="1.0" viewBox="0 0 926.000000 245.000000"><path d="M552.5 25c-.4.6-.5 2.7-.3 4.7.3 3.7.2 3.7-4.2 4.6-7.1 1.4-10.2 5.6-6.5 8.7 1.5 1.2 7.3 1 13.5-.6 1.4-.3.5.4-2 1.7-4 2.2-4.5 2.8-4.5 5.9v3.5l6.2.8c6.2.9 6.2.9 6.9 4.5.6 3.1-.4 13-2.2 22.7-.3 1.6-.6 4.9-.7 7.2-.1 4-.3 4.2-4.5 5.4-2.4.7-7.2 1.2-10.6 1.2-3.3-.1-6.5.2-7.1.7-.5.4-4 1-7.8 1.3-8.8.8-17.7 2.5-25.8 4.8-3.6 1.1-10.6 2.4-15.5 3-4.9.6-11.6 1.8-14.9 2.6-3.3.8-8.5 2-11.5 2.7-3 .7-6.2 1.5-7 1.8-1.5.6-3.7 1-16.5 2.7-7.8 1-23.3 4.9-29.3 7.2-1.3.5-4.7.9-7.7.9s-5.6.4-5.9.9c-.4.5-2.5 1.2-4.9 1.6-2.3.4-6.7 1.3-9.7 2.1-3 .8-7.3 1.4-9.7 1.4-2.4 0-8.7 1.1-14 2.5-5.4 1.4-12.3 3-15.3 3.4-4.8.7-20.5 4-34 7.1-2.5.6-9.2 2-15 3.1-5.8 1-12.4 2.4-14.8 2.9-2.3.6-5.5 1-7.1 1-1.6 0-3.4.7-4.1 1.5-.7.9-2 1.3-2.9 1-1.5-.4-16.3 2-27.6 4.6-2.2.5-6.9 1.4-10.5 1.9-15.9 2.5-42.6 8.1-47.5 10-1.1.4-5.6 1.3-9.9 2-4.4.6-10 1.8-12.5 2.5s-8.2 2.1-12.6 3c-13.2 2.8-36.9 9.9-39.3 11.8-.7.5-1.5.8-1.8.5-.5-.6 5.2-4 17.6-10.6 3.6-1.9 7.2-4.1 8.1-4.8.8-.8 1.9-1.4 2.3-1.4.4 0 5.8-2.8 11.9-6.1 6.2-3.4 13.7-7.5 16.7-9.2 7.4-4 19.8-12.4 23.8-16.1 3.4-3.2 4.1-6.6 1.7-8.6-2-1.6-9.8-.8-19 2-16.9 5.1-30.8 8-38.7 8-5.6 0-7.1-.4-9.5-2.4-1.9-1.7-2.5-2.8-1.8-3.5 2.1-2.1 45.6-24.4 57.3-29.3 7.2-3 12.7-5.9 13.3-7 1.4-2.6-1.3-6.8-4.5-6.8-1.2 0-6.9 2.4-12.7 5.4-16.8 8.8-39.3 17.6-51.3 20.1-2.6.5-2.8.9-2.3 3.8.5 3.1.2 3.4-4.1 5.7-4.3 2.3-4.7 2.9-5 6.5-.4 4.8 2.8 10.2 7.3 12.5 5.2 2.6 21.7 1.8 37.9-1.9 7.6-1.8 14-3 14.3-2.7.2.2-2.4 2-5.9 3.9-3.5 1.9-11.5 6.3-17.8 9.8-6.3 3.4-13.7 7.7-16.5 9.4-2.7 1.8-12 6.9-20.5 11.5-22.1 11.8-39.6 21.7-46 26-3 2-10 6.1-15.5 8.9-13.1 7-15.5 8.7-15.5 11.6 0 3.5 2.6 5.5 7 5.5 2.8 0 7.6-1.9 17.6-7 7.5-3.9 15-8 16.5-9.1 4.3-3 23-11.6 29.6-13.5 3.2-.9 7.4-2.5 9.3-3.5 1.9-1 8-2.9 13.4-4.4 5.5-1.4 10.3-2.8 10.8-3.1 1.1-.7 15.9-4.9 26.3-7.5l11.6-2.9c2-.6 4.9-1 6.5-1 1.6 0 6.5-1.1 10.8-2.5 4.3-1.4 8.9-2.5 10.3-2.5 1.3 0 4.9-.6 8.1-1.4 3.1-.8 10.9-2.2 17.2-3.1 6.3-.9 15.6-2.6 20.5-3.7 5-1.2 13.3-2.7 18.5-3.5 19-2.7 21.6-3.2 26.5-4.8 2.8-.9 6.4-1.9 8-2.1 1.7-.3 6-.9 9.7-1.5 3.7-.6 7-1.1 7.3-1.1.2.1 1.9-.4 3.7-.9 1.8-.6 8.7-2.1 15.3-3.4 6.6-1.3 14.5-3 17.5-3.8 5.2-1.4 11.3-2.6 24-4.6 16.9-2.7 42.8-8.4 46.2-10.2 1-.5 3.8-.9 6.3-.9 4.3 0 11.9-1.4 16-3.1 1.1-.4 7.4-1.7 14-2.8 12.3-2.1 28.9-5.4 45.4-9 5.2-1.2 10.9-2.1 12.7-2.1 1.8 0 3.5-.4 3.8-.8.3-.5 4.2-1.2 8.7-1.5 4.4-.4 9.4-1.3 11.1-2.1 1.7-.9 4.2-1.3 5.8-1 1.5.3 3.6.1 4.7-.4 1-.6 6.4-1.5 11.8-2.1 5.5-.6 14.7-2 20.5-3 5.8-1.1 15.2-2.7 21-3.5 15.3-2.2 23.7-3.5 30.6-4.6 3.4-.6 8.5-1 11.3-1 2.9 0 6-.4 7-1 1-.5 6-1.4 11.2-2 5.2-.6 13.1-1.5 17.7-2 4.5-.6 12-1.5 16.7-2 4.7-.6 12.2-1.5 16.8-2.1 4.5-.5 12.3-1.2 17.2-1.4 5-.2 12.8-.9 17.5-1.4 11.6-1.4 15.5-1.8 38.5-3.6 40.5-3.2 67.1-5.7 71.2-6.6 2.3-.5 4.8-.6 5.6-.3 2.2.8 4.2 5.3 3.8 8.6-.3 2.9-.2 2.9 4.5 2.6 4.7-.3 5-.5 10.1-7.3 3-3.9 6.9-8.9 8.7-11.2 2.9-3.7 3.4-5.2 4-12.4.8-9.4.1-10.9-5.2-10.9-4 0-8.3 3.9-12.8 11.6l-2.6 4.4-6.1-5.5c-6.6-6-8.4-6.6-11.2-3.5-2.3 2.5-3.3 11.4-1.5 13.5 1.1 1.3.8 1.5-1.6 1.5-1.6 0-6.2.6-10.3 1.4-4.1.8-8.9 1.2-10.6.9-1.9-.3-3.5 0-3.9.6-.4.6-1.7 1.1-3 1.1-1.2 0-2.6.3-3 .7-.4.4-6.4.8-13.4.9-7 0-18.8.8-26.2 1.7-7.4.9-17.5 1.8-22.5 2.2-12.6.8-18.6 1.4-29 2.6-4.9.5-12.8 1.2-17.5 1.4-4.7.3-9.8.7-11.5.9-11 1.6-23.6 3.7-26.7 4.5-2.1.5-6.6.7-10 .6-3.5-.2-6.8.1-7.6.7-1.2 1-20.9 3.5-32.7 4.2-2.7.2-7.5 1-10.5 1.9-6.7 2-13.4 3.1-18 3-1.9-.1-7.5.7-12.5 1.7-9.2 1.9-17.5 1.7-17.4-.4 0-.6.7-4.7 1.6-9.1.8-4.4 1.7-12.2 2-17.4.3-6.5.9-9.8 1.9-10.9 2.2-2.2 1.3-6.4-1.6-7.9-1.4-.7-4.4-1.3-6.7-1.3-2.4 0-4.3-.4-4.3-.9 0-1.2 5.1-2.1 13.5-2.4l7-.2v-8l-8.7-.3c-8.5-.3-8.8-.4-8.8-2.6 0-1.3-.7-2.7-1.6-3-2.5-1-7.2-.7-7.9.4zm12 22.9c.3.5.1 1.3-.5 1.6-1.5.9-4.3-.3-3.5-1.5.8-1.3 3.2-1.3 4-.1z"/><path d="M344.5 67.6c-13.9 3.7-25.5 8.7-28.2 12.2-1.3 1.8-1.6 5.4-.7 8.9.9 3.1 4.1 2.9 7.6-.4l2.8-2.7v2.8c0 3.5 2.4 8 5.2 10 3.7 2.6 13.4 2.1 19.3-1 7-3.6 12.4-7.3 16.5-11.2 3-2.8 3.5-3.9 3.5-7.7 0-3.7-.6-5-3.1-7.6-3-3-3.6-3.2-12-3.5-4.9-.1-9.8-.1-10.9.2zm16.3 9.9c2 2-16.9 13.5-22.2 13.5-3.3 0-3.8-1.1-1.8-4.2 1.8-2.7 10.8-9.2 13.9-10.2 2.3-.6 9.2 0 10.1.9zM371.6 157.6c-.6 1.6 1.2 5.5 4.2 9.1 2 2.3 12.3 8.3 23.2 13.5 8.8 4.2 19.5 4.9 29.2 2 18.5-5.8 36.8-16.6 36.8-21.8 0-3.6-3.1-3.1-13.8 2.1-5 2.5-9.8 4.5-10.5 4.5-.7 0-1.7.4-2.3 1-.5.5-5 2.4-9.9 4.1-7.6 2.6-10 3-15.5 2.6-3.6-.3-8.1-1.4-10-2.4-12.4-6.7-17.4-9.9-19.8-12.9-2.3-2.9-3.3-3.4-6.8-3.4-2.9 0-4.4.5-4.8 1.6z"/></svg>