<svg xmlns="http://www.w3.org/2000/svg" width="378.000000pt" height="401.000000pt" version="1.0" viewBox="0 0 378.000000 401.000000"><path d="M300 11.7c-.8.3-4 1.5-7 2.6-3.9 1.4-7.5 3.9-12.2 8.5-5.6 5.3-7.1 7.5-8.7 12.6-1.1 3.3-2.1 7.7-2.3 9.6-.3 3.4-.4 3.5-4.3 3.4-3.9-.2-6.8-.8-18.5-4.1-3-.9-8.6-1.7-12.5-1.9-3.8-.1-12.2-.5-18.5-.9-11.2-.7-21.4.5-29.2 3.3-1.2.5-5.2 1.2-8.7 1.6-3.5.4-8.5 1.8-11.1 3.1-2.6 1.3-7.8 3.4-11.6 4.6-3.8 1.2-8.2 3-9.9 3.9-1.6 1-5.4 2.8-8.3 3.9-2.9 1.2-7.8 3.7-10.8 5.6-3 1.9-5.8 3.5-6.3 3.5s-4.3 2.3-8.4 5c-4.6 3.1-8.1 4.8-9.1 4.4-.8-.3-2.7-2.9-4-5.8-2.9-6-9.8-12.9-15.9-15.7-10.2-4.6-21.6-.9-32.5 10.6C43 77.2 40.9 80.8 38.3 91c-7.2 27.2-5.7 35.4 8.5 45.6 3.1 2.2 5.8 4.8 6 5.8.2.9-.6 3.6-1.7 5.9-1.2 2.4-2.1 5-2.1 5.8 0 .8-.7 2.7-1.6 4.4-2.9 5.6-4.4 13.8-4.4 24.6 0 17.1 5.1 29.9 18.1 45.7 8.1 9.8 26.6 21.8 40.4 26.2 2.2.7 4.5 1.6 5 2 1.4 1.1 8.2 2.8 13.8 3.5 2.6.3 5.9 1 7.3 1.6 3.8 1.4 31.2 1.5 35.4.2 1.9-.7 5.8-1.4 8.7-1.7 10.6-1.1 15.9-1.9 18.9-3.2 3.6-1.5 10.5-2.1 12.2-1 2.2 1.3 1.2 4.1-5 14.4-3.5 5.7-7.4 12.3-8.8 14.6-1.4 2.4-4.4 6.8-6.7 9.7-2.4 3-6.7 8.8-9.6 12.9-7.3 10.3-10.4 12.3-18.2 11.5-3.7-.4-8.9-.1-13.7.9-14 2.7-23.6 9.4-28.8 20.2-4.1 8.3-3.7 13.8 1.3 18 2.7 2.2 3.8 2.6 8.2 2.2 10.1-.8 18.3-6 36.2-23 6.3-6.1 8.8-7.8 11.1-7.8 1.6 0 10 3.5 18.8 7.8 19.1 9.5 19.7 9.7 29.9 11.8 5.7 1.1 10.3 1.4 16 1 9.6-.8 9.3-1 17.3 12.5 5.7 9.5 14 18 20.4 20.9 6.8 3.1 11.6 2.6 20.5-2.1 4.3-2.2 10.2-4.7 13.1-5.5 10.9-2.9 15-5.3 20.8-12.3 5.9-7.2 9.4-13.4 9.4-17 0-1.2-1.3-3.6-2.9-5.2-2.4-2.4-3.8-2.9-7.7-2.9-2.5 0-6.3.5-8.4 1.1-3.3 1-4.2.9-8.2-1.5-6.2-3.6-13.8-3.7-16.6-.1-1.6 2.1-1.9 3.9-1.8 11.7.1 5.1.6 11.6 1 14.4l.8 5-4.7 4.2c-4.9 4.3-9.6 5.9-13.6 4.7-7.5-2.4-23.2-24-21.4-29.6.4-1 3.4-4.9 6.8-8.6 7.1-7.7 9.7-11.7 12.5-18.9 2.9-7.3 3.3-13.7 1.1-17.4-2.1-3.4-9.1-8.8-12.7-9.7-3.8-.9-10.3 1.6-14.3 5.6-4.5 4.5-6.1 11.6-6.3 27.8-.1 10.1-.3 11.4-2.4 13.6-2.6 2.7-8.5 4.8-12.2 4.2-9-1.4-23.1-5.5-25.5-7.5-.6-.5-4.9-2.8-9.5-5.1-16.3-8-17.1-9.6-9.1-20.1 14.1-18.6 26.4-38.4 33-52.8 1.6-3.6 3.7-7.2 4.7-8.1 1.1-.9 5.7-2.7 10.4-3.9 4.7-1.2 11-3.4 14-4.9 3-1.5 7.3-3.4 9.5-4.1 6.3-2 25.5-12 29.2-15.3 3.8-3.3 3.9-3.9 1.6-6.2-2.2-2.2-6.2-1.4-11.7 2.4-6.3 4.4-36.5 18.9-40.6 19.6-1.9.3-4.2.1-5-.4-1.6-1.1-1-3.3 5.8-21.6 4.9-13.2 10.2-30.9 10.2-34 0-1.7.7-4.9 1.5-7.2.8-2.2 1.2-5 1-6.1-.2-1.1.2-4.2.9-6.9.7-2.6 1.4-11.2 1.5-18.9.2-13.9.2-14.1-2.4-17.2-3.7-4.4-6.5-4.1-12.1 1-5.7 5.2-9.7 11-11.4 16.3-1.9 6.1-10.9 23.1-14.5 27.3-1.7 2-5 6.5-7.3 9.8-6.5 9.8-20.1 21.7-30.7 27-7.7 3.8-9.9 4.5-15.5 4.6-5.4.1-7.5-.4-12.5-3-3.3-1.6-7.4-4.5-9.2-6.4-3.8-4-10.3-18.4-10.3-23 0-4.2-1.2-6.1-3.6-5.6-1.6.3-1.9 1.4-2.2 7.1-.3 6 .1 7.4 3 12.9 4.2 8 11.7 16.1 17.3 18.8 2.4 1.2 4.5 2.6 4.7 3.1.2.6 3.8 1.5 8.1 2.1 6.4.8 8.5.7 12.4-.6 2.5-.9 6-1.6 7.7-1.6 4 0 11.7-3.7 18.2-8.6 5.7-4.3 16.3-15.4 20.9-21.9 1.7-2.4 5.1-7.2 7.8-10.8 2.6-3.6 7.8-12.9 11.5-20.8 8.2-17.4 9-18.9 10.2-18.9.9 0 .7 17.3-.3 20-.4.8-.9 4-1.2 6.9-.3 3-1.2 7.8-1.9 10.5-.8 2.8-2.2 8.5-3.1 12.6-3.1 13.8-14.3 47.3-17.5 52.3-3.5 5.5-9.3 8.7-24 12.9-20.4 6-22.6 6.3-41.5 6.3-9.9 0-19.3-.4-21-.8-1.6-.4-3.4-.9-4-1.1-.5-.1-2.8-.6-5-1-9.5-1.8-30.2-11.4-39.5-18.3-5.2-3.8-12-11.1-16.8-17.9-1.2-1.7-3.5-7.1-5.1-12-2.8-8.6-2.9-9.3-2.1-20.4 1.5-20.9 4.4-30.7 13.6-45 2.2-3.6 5.5-9.4 7.2-13 3.6-7.6 16.8-22.7 24.2-27.7 2.6-1.8 5.5-4.4 6.3-5.7 3.3-5 16.8-14 37.2-24.9C147.9 66.3 171 57 173.1 57c1.2 0 4.5-.7 7.3-1.5 18.4-5.3 21-5.6 42.3-5.7 17.3 0 21.5.2 24.8 1.6 2.2.9 5.1 1.8 6.5 2 5.1.6 16.7 5 23.5 9 7.1 4.2 18.6 15 23.5 22.1 5.1 7.4 7.8 19.1 8.6 37.5.5 10.1 1 7.9-8.4 40.7-1.6 5.6-5.4 15.3-8.5 21.5-6.6 13.4-9.3 23.1-7 25.4 1.4 1.3 1.8 1.3 3.5-.3 3.6-3.3 14.5-26.7 19.7-42.3 7.4-22.3 8.1-25.9 8.1-43.4 0-17.2-.7-20.2-8-34.8-5.3-10.5-10.2-16.9-19.2-24.9C282 57 279 52.8 279 48.9c0-8 13.8-23.7 24-27.4 12.4-4.4 24.7-.2 26.6 9.1.7 3.7-4.4 13.7-12.2 24-5.5 7.2-6.5 10.2-3.9 12.4 5 4.1 23.5-19.5 23.5-30.1 0-7.6-6.2-18.8-12.3-22-3.4-1.9-22.1-4.3-24.7-3.2zM82.8 67.5c1.7 1.4 4.5 4.7 6.2 7.3 2.6 3.8 3.1 5.4 2.7 8.7-.5 4.7-6.2 13.6-14 21.7-6.1 6.3-12.4 14.6-15.7 20.5-3 5.4-6.6 7.1-10.9 4.8-6.6-3.3-8.3-9.6-6-21.9C48.8 88.7 58.4 73.5 71.4 67c5.4-2.6 7.8-2.5 11.4.5zm180 235.8c3.4 4.1 3.2 6.3-1.3 15.4-2.5 4.8-6 10.6-7.9 12.8-2.9 3.4-3.7 3.8-5.3 2.9-3-1.8-3.8-9.4-1.9-17 2-7.7 3.9-11 8.1-13.5 3.5-2.2 6.8-2.4 8.3-.6zM152 327.5c0 1.2-1.4 3.6-3.2 5.2-7.5 7-12.7 11.3-19.4 16-5.4 3.9-7.5 4.8-8.7 4.1-2.5-1.4-2.1-3.7 1.8-9.3 4.5-6.6 10.9-11.8 19.6-16 7.6-3.6 9.9-3.6 9.9 0z"/><path d="M212 108.8c-2.5 2.1-3.8 8.9-2.1 12 .6 1.2 2.5 2.9 4.2 3.8 2.8 1.4 3.3 1.4 5.5 0 3.3-2.2 5.7-7.2 4.9-10.3-.8-3.5-5-7.3-7.8-7.3-1.4 0-3.5.8-4.7 1.8zM137.1 128.6c-1.7 1.4-3.1 3.2-3.1 4 0 .8 2.1 3.7 4.6 6.4 3.8 4 5.3 5 7.9 5 8.3 0 9-14 .9-17-4.1-1.6-7.1-1.1-10.3 1.6z"/></svg>